<svg xmlns="http://www.w3.org/2000/svg" xmlns:xlink="http://www.w3.org/1999/xlink" height="64" width="64"><title>Trademark warning symbol for Wikimedia Commons</title><defs><linearGradient id="a" y2="56.052" gradientUnits="userSpaceOnUse" x2="47.32" y1="11.113" x1="4.191"><stop stop-color="#D4D4D4" offset="0"/><stop stop-color="#E2E2E2" offset=".398"/><stop stop-color="#fff" offset="1"/></linearGradient><linearGradient xlink:href="#a" id="d" gradientUnits="userSpaceOnUse" x1="4.191" y1="11.113" x2="47.32" y2="56.052" gradientTransform="translate(32.053 32.168) scale(.7117)"/><linearGradient xlink:href="#a" id="b" gradientUnits="userSpaceOnUse" x1="4.191" y1="11.113" x2="47.32" y2="56.052" gradientTransform="translate(25.49 -2.043) scale(.6767)"/><linearGradient xlink:href="#a" id="c" gradientUnits="userSpaceOnUse" x1="4.191" y1="11.113" x2="47.32" y2="56.052" gradientTransform="translate(-.597 23.01) scale(.6767)"/></defs><g color="#000"><circle r="15.465" cy="16.906" cx="41.977" fill="#64647f" stroke="#3a3a50" stroke-width=".851"/><circle r="12.304" cy="16.906" cx="41.977" fill="url(#b)"/><path d="M39.004 16.732h2.506c1.17 0 2.06-.24 2.676-.717.614-.478.922-1.203.922-2.175 0-.987-.308-1.678-.922-2.072-.615-.395-1.507-.592-2.676-.592h-2.506zm6.286 7.857l-3.598-6.31h-2.688v6.31H37.09V9.65h4.693c.76 0 1.457.07 2.095.216.638.144 1.188.383 1.65.717.464.334.825.767 1.083 1.298.26.54.39 1.19.39 1.96 0 1.17-.3 2.11-.91 2.8-.61.7-1.42 1.18-2.44 1.44l3.81 6.517z" fill="#1d1d25"/></g><g color="#000"><circle r="15.465" cy="41.957" cx="15.89" fill="#bfbfd0" stroke="#3a3a50" stroke-width=".851"/><circle r="12.304" cy="41.957" cx="15.89" fill="url(#c)"/><path d="M9.727 38.227H6.68v-1.072h7.365v1.072h-3.047V47.2h-1.27zm6.036-1.072h1.516l1.94 5.39.72 2.05H20l.706-2.05 1.93-5.39h1.5V47.2h-1.21v-5.53c0-.45.02-.945.06-1.485.042-.54.078-1.036.11-1.486h-.062l-.796 2.23-1.93 5.25h-.736l-1.93-5.25-.795-2.237h-.06l.1 1.486c.033.54.05 1.036.05 1.485v5.53h-1.18z" fill="#1d1d25"/></g><path d="M63.225 59.57L50.842 36.51c-.356-.64-.997-.997-1.708-.997-.712 0-1.353.427-1.708 1.068l-12.1 23.06c-.284.57-.284 1.36.072 1.92.356.57.925.86 1.637.86h24.482c.712 0 1.352-.352 1.637-.922.356-.57.356-1.28.07-1.92z" fill="#e4a700" stroke="#514300" stroke-width="1.139"/><path d="M38.814 58.928c-.213.356 0 .64.356.64h20.07c.356 0 .57-.284.356-.64l-10.178-18.93c-.213-.357-.498-.357-.64 0l-9.964 18.93z" fill="url(#d)"/><path d="M49.062 57.45c-.82 0-1.453-.63-1.453-1.453 0-.884.56-1.453 1.45-1.453.88 0 1.39.57 1.45 1.453 0 .822-.57 1.453-1.456 1.453zm-.884-3.727l-.38-7.267h2.528l-.38 7.267h-1.83.062z"/></svg>